<svg xmlns="http://www.w3.org/2000/svg" viewBox="0 0 1600 760" role="img" aria-label="Original engineering adventure campus illustration">
  <defs>
    <linearGradient id="sky" x1="0" y1="0" x2="1" y2="1"><stop stop-color="#0c2134"/><stop offset=".55" stop-color="#102c45"/><stop offset="1" stop-color="#172039"/></linearGradient>
    <linearGradient id="sun" x1="0" y1="0" x2="0" y2="1"><stop stop-color="#f4d88a"/><stop offset="1" stop-color="#a7d8ef"/></linearGradient>
    <linearGradient id="mount" x1="0" y1="0" x2="0" y2="1"><stop stop-color="#1a3d55"/><stop offset="1" stop-color="#0a1725"/></linearGradient>
    <linearGradient id="metal" x1="0" y1="0" x2="1" y2="1"><stop stop-color="#8ddcff"/><stop offset="1" stop-color="#7085d8"/></linearGradient>
    <filter id="glow"><feGaussianBlur stdDeviation="18"/></filter>
  </defs>
  <rect width="1600" height="760" fill="url(#sky)"/>
  <circle cx="1170" cy="145" r="110" fill="url(#sun)" opacity=".9"/>
  <circle cx="1170" cy="145" r="180" fill="#8edcff" opacity=".16" filter="url(#glow)"/>
  <g fill="#ffffff" opacity=".65">
    <circle cx="180" cy="150" r="2"/><circle cx="320" cy="90" r="2"/><circle cx="540" cy="160" r="1.6"/><circle cx="720" cy="70" r="2"/><circle cx="940" cy="210" r="1.7"/><circle cx="1330" cy="92" r="1.8"/><circle cx="1450" cy="220" r="1.5"/>
  </g>
  <path d="M0 430 L190 280 L310 360 L470 210 L635 410 L805 245 L1010 420 L1175 265 L1360 410 L1510 305 L1600 370 V760 H0Z" fill="url(#mount)"/>
  <path d="M0 520 L230 420 L380 500 L565 355 L760 520 L940 390 L1130 520 L1280 430 L1460 520 L1600 450 V760 H0Z" fill="#08131f" opacity=".92"/>
  <g transform="translate(740 300)">
    <path d="M0 300 V150 L120 70 L240 150 V300Z" fill="#0b1927" stroke="#7edbff" stroke-width="4" opacity=".96"/>
    <path d="M70 300 V180 H170 V300" fill="#111f2d" stroke="#d9b66f" stroke-width="4"/>
    <path d="M120 70 L120 20 L165 55 L120 92 L75 55Z" fill="#152d42" stroke="#8ddcff" stroke-width="4"/>
    <path d="M25 170 L120 115 L215 170" fill="none" stroke="#7c97d9" stroke-width="4"/>
    <circle cx="120" cy="170" r="18" fill="#8ddcff" opacity=".35"/>
    <path d="M260 305 L320 210 L380 305Z" fill="#0c1a28" stroke="#7edbff" stroke-width="4"/>
    <path d="M292 305 V255 M348 305 V255 M320 210 V265" stroke="#d9b66f" stroke-width="4"/>
  </g>
  <g transform="translate(1280 380)" opacity=".9">
    <circle cx="0" cy="0" r="68" fill="#0a1826" stroke="url(#metal)" stroke-width="7"/>
    <circle cx="0" cy="0" r="19" fill="#d9b66f"/>
    <g stroke="#85d9ff" stroke-width="6">
      <path d="M0-67V-24 M0 24V67 M-67 0H-24 M24 0H67"/>
      <path d="M-47-47L-17-17 M17 17L47 47 M47-47L17-17 M-17 17L-47 47"/>
    </g>
  </g>
  <path d="M0 660 C300 610 440 710 760 650 C1040 600 1260 690 1600 625 V760 H0Z" fill="#06101a"/>
  <path d="M0 704 C300 652 440 750 760 695 C1040 650 1260 735 1600 670" fill="none" stroke="#d9b66f" stroke-opacity=".35" stroke-width="3"/>
</svg>
